<svg xmlns="http://www.w3.org/2000/svg" width="70.316" height="64.456" viewBox="0 0 70.316 64.456"><g transform="translate(0 -2)"><g transform="translate(0 24.562)"><path d="M51.133,51.594a5.844,5.844,0,0,1-1.494-.193L4.335,39.268A5.913,5.913,0,0,1,.192,32.09L5.908,10.785a1.465,1.465,0,0,1,2.83.756L3.026,32.84a2.973,2.973,0,0,0,2.08,3.6L50.392,48.568a2.917,2.917,0,0,0,3.566-2.063l2.288-8.479a1.465,1.465,0,0,1,2.83.762L56.79,47.255a5.852,5.852,0,0,1-5.657,4.339Z" transform="translate(0 -9.701)" fill="#fff"/></g><g transform="translate(11.718 2)"><path d="M56.736,48.877H9.86A5.865,5.865,0,0,1,4,43.017V7.86A5.865,5.865,0,0,1,9.86,2H56.736A5.865,5.865,0,0,1,62.6,7.86V43.017A5.865,5.865,0,0,1,56.736,48.877ZM9.86,4.93A2.935,2.935,0,0,0,6.93,7.86V43.017a2.935,2.935,0,0,0,2.93,2.93H56.736a2.935,2.935,0,0,0,2.93-2.93V7.86a2.935,2.935,0,0,0-2.93-2.93Z" transform="translate(-4 -2)" fill="#fff"/></g><g transform="translate(20.508 10.789)"><path d="M12.86,16.719a5.86,5.86,0,1,1,5.86-5.86A5.865,5.865,0,0,1,12.86,16.719Zm0-8.789a2.93,2.93,0,1,0,2.93,2.93A2.935,2.935,0,0,0,12.86,7.93Z" transform="translate(-7 -5)" fill="#fff"/></g><g transform="translate(11.923 18.26)"><path d="M5.535,35.032a1.463,1.463,0,0,1-1.037-2.5L18.336,18.695a4.5,4.5,0,0,1,6.214,0l4.119,4.119,11.4-13.682A4.4,4.4,0,0,1,43.418,7.55h.032a4.392,4.392,0,0,1,3.337,1.532L62.11,26.96a1.465,1.465,0,0,1-2.224,1.907L44.563,10.99a1.449,1.449,0,0,0-1.113-.51,1.555,1.555,0,0,0-1.125.527L29.894,25.923a1.459,1.459,0,0,1-1.061.524,1.41,1.41,0,0,1-1.1-.428l-5.253-5.253a1.5,1.5,0,0,0-2.071,0L6.57,34.6a1.46,1.46,0,0,1-1.034.428Z" transform="translate(-4.07 -7.55)" fill="#fff"/></g></g></svg>