<svg xmlns="http://www.w3.org/2000/svg" xmlns:xlink="http://www.w3.org/1999/xlink" width="325" height="283" viewBox="0 0 325 283"><defs><filter id="a"><feOffset input="SourceAlpha"/><feGaussianBlur stdDeviation="5" result="b"/><feFlood flood-opacity="0.149" result="c"/><feComposite operator="out" in="SourceGraphic" in2="b"/><feComposite operator="in" in="c"/><feComposite operator="in" in2="SourceGraphic"/></filter></defs><g data-type="innerShadowGroup"><g transform="translate(325 283) rotate(180)" fill="#fff"><path d="M162.5,0,325,283H0Z" stroke="none"/><path d="M 162.4999542236328 2.00823974609375 L 1.72735595703125 282 L 323.2726440429688 282 L 162.4999542236328 2.00823974609375 M 162.4999542236328 0 L 325 283 L 0 283 L 162.4999542236328 0 Z" stroke="none"/></g><g transform="matrix(1, 0, 0, 1, 0, 0)" filter="url(#a)"><g transform="translate(325 283) rotate(180)" fill="#fff"><path d="M162.5,0,325,283H0Z" stroke="none"/><path d="M 162.4999542236328 2.00823974609375 L 1.72735595703125 282 L 323.2726440429688 282 L 162.4999542236328 2.00823974609375 M 162.4999542236328 0 L 325 283 L 0 283 L 162.4999542236328 0 Z" stroke="none"/></g></g><g transform="translate(325 283) rotate(180)" fill="none"><path d="M162.5,0,325,283H0Z" stroke="none"/><path d="M 162.4999542236328 2.00823974609375 L 1.72735595703125 282 L 323.2726440429688 282 L 162.4999542236328 2.00823974609375 M 162.4999542236328 0 L 325 283 L 0 283 L 162.4999542236328 0 Z" stroke="none" fill="rgba(112,112,112,0.3)"/></g></g></svg>