<svg xmlns="http://www.w3.org/2000/svg" width="28.711" height="24.623" viewBox="0 0 28.711 24.623"><g transform="translate(-647.559 -2057)"><g transform="translate(655.804 2060.086)"><path d="M18.892,9.325,10.137.569A1.959,1.959,0,0,0,8.76,0H1.947A1.946,1.946,0,0,0,0,1.947V8.76a1.926,1.926,0,0,0,.574,1.377l8.76,8.76a1.945,1.945,0,0,0,2.75,0L18.9,12.084a1.95,1.95,0,0,0,0-2.759ZM3.407,4.867a1.46,1.46,0,1,1,1.46-1.46A1.458,1.458,0,0,1,3.407,4.867Z" fill="none" stroke="#171717" stroke-width="2"/></g><g transform="translate(647.559 2057)"><path d="M23.9,11.794,12.822.72A2.478,2.478,0,0,0,11.08,0H2.462A2.462,2.462,0,0,0,0,2.462V11.08a2.436,2.436,0,0,0,.726,1.742L11.807,23.9a2.46,2.46,0,0,0,3.478,0L23.9,15.285a2.467,2.467,0,0,0-.006-3.49ZM4.309,6.156A1.847,1.847,0,1,1,6.156,4.309,1.844,1.844,0,0,1,4.309,6.156Z"/></g></g></svg>