<svg xmlns="http://www.w3.org/2000/svg" width="24.819" height="24.843" viewBox="0 0 24.819 24.843"><path d="M21.152,3.608a12.416,12.416,0,0,0-17.5,0A12.187,12.187,0,0,0,0,12.307v.006a12.251,12.251,0,0,0,1.512,5.814L.034,24.843,6.828,23.3A12.435,12.435,0,0,0,12.4,24.623h0a12.376,12.376,0,0,0,8.755-3.605,12.18,12.18,0,0,0-.013-17.41ZM12.409,22.684h0a10.48,10.48,0,0,1-4.982-1.263L7.1,21.247,2.584,22.274l.981-4.459-.189-.326a10.364,10.364,0,0,1-1.437-5.178A10.467,10.467,0,0,1,19.783,4.981a10.307,10.307,0,0,1,3.1,7.334A10.435,10.435,0,0,1,12.409,22.684Zm0,0" fill="#fff"/><path d="M141.162,141.863h-.544a1.044,1.044,0,0,0-.757.354,3.168,3.168,0,0,0-.994,2.36,5.5,5.5,0,0,0,1.159,2.926,11.635,11.635,0,0,0,4.849,4.27c2.4.942,2.886.755,3.406.708a2.866,2.866,0,0,0,1.916-1.345,2.358,2.358,0,0,0,.166-1.345c-.071-.118-.26-.189-.544-.33s-1.675-.838-1.935-.932-.449-.141-.639.142-.747.937-.912,1.126-.331.213-.615.071a7.848,7.848,0,0,1-2.273-1.41,8.7,8.7,0,0,1-1.6-1.99c-.165-.283-.018-.436.125-.577s.3-.3.442-.465a1.913,1.913,0,0,0,.277-.472.519.519,0,0,0-.024-.5c-.071-.142-.616-1.541-.868-2.1h0C141.588,141.888,141.364,141.872,141.162,141.863Zm0,0" transform="translate(-132.129 -134.98)" fill="#fff"/></svg>